{
  "asset": {
    "version": "2.0",
    "generator": "THREE.GLTFExporter"
  },
  "scenes": [
    {
      "name": "Scene",
      "nodes": [
        0,
        1,
        2
      ]
    }
  ],
  "scene": 0,
  "nodes": [
    {
      "matrix": [
        1,
        0,
        0,
        0,
        0,
        1,
        0,
        0,
        0,
        0,
        1,
        0,
        0,
        0.9398249465557691,
        0,
        1
      ],
      "name": "Torus",
      "mesh": 0
    },
    {
      "matrix": [
        1,
        0,
        0,
        0,
        0,
        1,
        0,
        0,
        0,
        0,
        1,
        0,
        -0.021404671027104097,
        0.3283899225047633,
        0.9597520315787713,
        1
      ],
      "name": "Lathe",
      "mesh": 1
    },
    {
      "matrix": [
        1,
        0,
        0,
        0,
        0,
        1,
        0,
        0,
        0,
        0,
        1,
        0,
        0,
        0.8979151285654474,
        0.9459803855095361,
        1
      ],
      "name": "Torus",
      "mesh": 2
    }
  ],
  "bufferViews": [
    {
      "buffer": 0,
      "byteOffset": 0,
      "byteLength": 6528,
      "target": 34962,
      "byteStride": 12
    },
    {
      "buffer": 0,
      "byteOffset": 6528,
      "byteLength": 6528,
      "target": 34962,
      "byteStride": 12
    },
    {
      "buffer": 0,
      "byteOffset": 13056,
      "byteLength": 4352,
      "target": 34962,
      "byteStride": 8
    },
    {
      "buffer": 0,
      "byteOffset": 17408,
      "byteLength": 5628,
      "target": 34963
    },
    {
      "buffer": 0,
      "byteOffset": 23036,
      "byteLength": 1716,
      "target": 34962,
      "byteStride": 12
    },
    {
      "buffer": 0,
      "byteOffset": 24752,
      "byteLength": 1144,
      "target": 34962,
      "byteStride": 8
    },
    {
      "buffer": 0,
      "byteOffset": 25896,
      "byteLength": 1716,
      "target": 34962,
      "byteStride": 12
    },
    {
      "buffer": 0,
      "byteOffset": 27612,
      "byteLength": 1440,
      "target": 34963
    },
    {
      "buffer": 0,
      "byteOffset": 29052,
      "byteLength": 4080,
      "target": 34962,
      "byteStride": 12
    },
    {
      "buffer": 0,
      "byteOffset": 33132,
      "byteLength": 4080,
      "target": 34962,
      "byteStride": 12
    },
    {
      "buffer": 0,
      "byteOffset": 37212,
      "byteLength": 2720,
      "target": 34962,
      "byteStride": 8
    },
    {
      "buffer": 0,
      "byteOffset": 39932,
      "byteLength": 3216,
      "target": 34963
    }
  ],
  "buffers": [
    {
      "byteLength": 43148,
      "uri": "data:application/octet-stream;base64,"
    }
  ],
  "accessors": [
    {
      "bufferView": 0,
      "componentType": 5126,
      "count": 544,
      "max": [
        2.559999942779541,
        2.5592963695526123,
        0.13648991286754608
      ],
      "min": [
        -2.5571863651275635,
        -2.5592963695526123,
        -0.13648991286754608
      ],
      "type": "VEC3"
    },
    {
      "bufferView": 1,
      "componentType": 5126,
      "count": 544,
      "max": [
        1,
        0.9997251629829407,
        0.9749279022216797
      ],
      "min": [
        -0.9989008903503418,
        -0.9997251629829407,
        -0.9749279022216797
      ],
      "type": "VEC3"
    },
    {
      "bufferView": 2,
      "componentType": 5126,
      "count": 544,
      "max": [
        1,
        1
      ],
      "min": [
        0,
        0
      ],
      "type": "VEC2"
    },
    {
      "bufferView": 3,
      "componentType": 5123,
      "count": 2814,
      "max": [
        543
      ],
      "min": [
        0
      ],
      "type": "SCALAR"
    },
    {
      "bufferView": 4,
      "componentType": 5126,
      "count": 143,
      "max": [
        0.4399999976158142,
        1.2000000476837158,
        0.4399999976158142
      ],
      "min": [
        -0.4399999976158142,
        0,
        -0.4399999976158142
      ],
      "type": "VEC3"
    },
    {
      "bufferView": 5,
      "componentType": 5126,
      "count": 143,
      "max": [
        1,
        1
      ],
      "min": [
        0,
        0
      ],
      "type": "VEC2"
    },
    {
      "bufferView": 6,
      "componentType": 5126,
      "count": 143,
      "max": [
        0.9951486587524414,
        0.9986178278923035,
        0.9968940019607544
      ],
      "min": [
        -0.9951486587524414,
        -0.9688743352890015,
        -0.9951486587524414
      ],
      "type": "VEC3"
    },
    {
      "bufferView": 7,
      "componentType": 5123,
      "count": 720,
      "max": [
        142
      ],
      "min": [
        0
      ],
      "type": "SCALAR"
    },
    {
      "bufferView": 8,
      "componentType": 5126,
      "count": 340,
      "max": [
        1.3200000524520874,
        1.3196372985839844,
        0.07999999821186066
      ],
      "min": [
        -1.3185491561889648,
        -1.3196372985839844,
        -0.07999999821186066
      ],
      "type": "VEC3"
    },
    {
      "bufferView": 9,
      "componentType": 5126,
      "count": 340,
      "max": [
        1,
        0.9997251629829407,
        1
      ],
      "min": [
        -1,
        -0.9997251629829407,
        -1
      ],
      "type": "VEC3"
    },
    {
      "bufferView": 10,
      "componentType": 5126,
      "count": 340,
      "max": [
        1,
        1
      ],
      "min": [
        0,
        0
      ],
      "type": "VEC2"
    },
    {
      "bufferView": 11,
      "componentType": 5123,
      "count": 1608,
      "max": [
        339
      ],
      "min": [
        0
      ],
      "type": "SCALAR"
    }
  ],
  "materials": [
    {
      "pbrMetallicRoughness": {
        "metallicFactor": 0,
        "roughnessFactor": 1
      },
      "emissiveFactor": [
        0.996078431372549,
        1,
        0.7607843137254902
      ]
    },
    {
      "pbrMetallicRoughness": {
        "metallicFactor": 0,
        "roughnessFactor": 1
      },
      "emissiveFactor": [
        0.0784313725490196,
        0.1411764705882353,
        0
      ]
    },
    {
      "pbrMetallicRoughness": {
        "metallicFactor": 0,
        "roughnessFactor": 1
      }
    }
  ],
  "meshes": [
    {
      "primitives": [
        {
          "mode": 4,
          "attributes": {
            "POSITION": 0,
            "NORMAL": 1,
            "TEXCOORD_0": 2
          },
          "indices": 3,
          "material": 0
        }
      ]
    },
    {
      "primitives": [
        {
          "mode": 4,
          "attributes": {
            "POSITION": 4,
            "TEXCOORD_0": 5,
            "NORMAL": 6
          },
          "indices": 7,
          "material": 1
        }
      ]
    },
    {
      "primitives": [
        {
          "mode": 4,
          "attributes": {
            "POSITION": 8,
            "NORMAL": 9,
            "TEXCOORD_0": 10
          },
          "indices": 11,
          "material": 2
        }
      ]
    }
  ]
}